<?xml version="1.0" encoding="UTF-8" standalone="no"?>
<svg
   version="1.1"
   viewBox="0 0 64 64"
   xml:space="preserve"
   id="svg39"
   sodipodi:docname="block.svg"
   inkscape:version="1.1.1 (3bf5ae0d25, 2021-09-20)"
   xmlns:inkscape="http://www.inkscape.org/namespaces/inkscape"
   xmlns:sodipodi="http://sodipodi.sourceforge.net/DTD/sodipodi-0.dtd"
   xmlns="http://www.w3.org/2000/svg"
   xmlns:svg="http://www.w3.org/2000/svg"
   xmlns:rdf="http://www.w3.org/1999/02/22-rdf-syntax-ns#"
   xmlns:cc="http://creativecommons.org/ns#"
   xmlns:dc="http://purl.org/dc/elements/1.1/"><metadata
     id="metadata43"><rdf:RDF><cc:Work
         rdf:about=""><dc:format>image/svg+xml</dc:format><dc:type
           rdf:resource="http://purl.org/dc/dcmitype/StillImage" /></cc:Work></rdf:RDF></metadata><sodipodi:namedview
     pagecolor="#ffffff"
     bordercolor="#666666"
     borderopacity="1"
     objecttolerance="10"
     gridtolerance="10"
     guidetolerance="10"
     inkscape:pageopacity="0"
     inkscape:pageshadow="2"
     inkscape:window-width="1578"
     inkscape:window-height="996"
     id="namedview41"
     showgrid="false"
     inkscape:zoom="8.7705101"
     inkscape:cx="31.982176"
     inkscape:cy="37.968145"
     inkscape:window-x="0"
     inkscape:window-y="0"
     inkscape:window-maximized="0"
     inkscape:current-layer="g37"
     inkscape:document-rotation="0"
     inkscape:pagecheckerboard="0" /><defs
     id="defs5"><clipPath
       id="clipPath3629"><path
         d="m0 48h48v-48h-48z"
         id="path2" /></clipPath></defs><g
     transform="matrix(1.3333,0,0,-1.3333,0,64)"
     id="g37"><g
       transform="matrix(1.2967909,0,0,1.2967909,2.1246308,45.683498)"
       id="g9"
       style="stroke-width:2.7112;stroke-miterlimit:4;stroke-dasharray:none"><path
         d="M 0,0 9.091,-9.014"
         fill="none"
         stroke="#020000"
         stroke-miterlimit="10"
         id="path7"
         style="stroke-width:2.7112;stroke-miterlimit:4;stroke-dasharray:none" /></g><g
       transform="matrix(1.4132365,0,0,1.3859063,34.452001,13.107736)"
       id="g13"
       style="stroke-width:2.51221;stroke-miterlimit:4;stroke-dasharray:none"><path
         d="M 0,0 8.089,-7.781"
         fill="none"
         stroke="#020000"
         stroke-miterlimit="10"
         id="path11"
         style="stroke-width:2.51221;stroke-miterlimit:4;stroke-dasharray:none" /></g><g
       transform="matrix(1.2967909,0,0,1.2967909,12.971957,34.587781)"
       id="g17"
       style="stroke-width:2.7112;stroke-miterlimit:4;stroke-dasharray:none"><path
         d="M 0,0 16.564,-16.564"
         fill="none"
         stroke="#11d9f4"
         stroke-miterlimit="10"
         id="path15"
         style="stroke:#009199;stroke-width:2.7112;stroke-miterlimit:4;stroke-dasharray:none;stroke-opacity:1" /></g><g
       clip-path="url(#clipPath3629)"
       id="g35"
       transform="matrix(1.5187104,0,0,1.5187104,-13.299409,-11.938881)"><g
         transform="matrix(1.6641602,0,0,1.6641602,23.655168,17.693415)"
         id="g29"
         style="stroke:#000000;stroke-width:0.49871;stroke-miterlimit:4;stroke-dasharray:none;stroke-opacity:1"><path
           d="m 0,0 c 0,-1.681 -1.346,-3.043 -3.005,-3.043 -1.659,0 -3.005,1.362 -3.005,3.043 0,1.681 1.346,3.043 3.005,3.043 C -1.346,3.043 0,1.681 0,0"
           fill="#f21434"
           id="path27"
           style="stroke:#000000;stroke-width:0.781659;stroke-miterlimit:4;stroke-dasharray:none;stroke-opacity:1" /></g><g
         transform="matrix(1.6663611,0,0,1.6663611,35.459199,29.364105)"
         id="g33"
         style="stroke-width:0.498051;stroke-miterlimit:4;stroke-dasharray:none"><path
           d="m 0,0 c 0,-1.766 -1.397,-3.197 -3.121,-3.197 -1.723,0 -3.12,1.431 -3.12,3.197 0,1.766 1.397,3.197 3.12,3.197 C -1.397,3.197 0,1.766 0,0"
           fill="#16ef16"
           id="path31"
           style="stroke:#000000;stroke-width:0.780626;stroke-miterlimit:4;stroke-dasharray:none;stroke-opacity:1" /></g></g><path
       style="fill:none;stroke:#009199;stroke-width:3.51586;stroke-linecap:butt;stroke-linejoin:miter;stroke-miterlimit:4;stroke-dasharray:none;stroke-opacity:1"
       d="M 8.9911407,28.141226 19.792915,38.943"
       id="path871" /><path
       style="fill:none;stroke:#009199;stroke-width:3.51586;stroke-linecap:butt;stroke-linejoin:miter;stroke-miterlimit:4;stroke-dasharray:none;stroke-opacity:1"
       d="M 28.19633,9.0458839 38.998106,19.847659"
       id="path871-4" /></g></svg>
