<?xml version="1.0" encoding="UTF-8" standalone="no"?>
<svg
   version="1.1"
   id="Layer_1"
   x="0px"
   y="0px"
   viewBox="0 0 48 48"
   style="enable-background:new 0 0 48 48;"
   xml:space="preserve"
   sodipodi:docname="circle-tangent.svg"
   inkscape:version="1.1.1 (3bf5ae0d25, 2021-09-20)"
   xmlns:inkscape="http://www.inkscape.org/namespaces/inkscape"
   xmlns:sodipodi="http://sodipodi.sourceforge.net/DTD/sodipodi-0.dtd"
   xmlns="http://www.w3.org/2000/svg"
   xmlns:svg="http://www.w3.org/2000/svg"
   xmlns:rdf="http://www.w3.org/1999/02/22-rdf-syntax-ns#"
   xmlns:cc="http://creativecommons.org/ns#"
   xmlns:dc="http://purl.org/dc/elements/1.1/"><metadata
   id="metadata4097"><rdf:RDF><cc:Work
       rdf:about=""><dc:format>image/svg+xml</dc:format><dc:type
         rdf:resource="http://purl.org/dc/dcmitype/StillImage" /></cc:Work></rdf:RDF></metadata><defs
   id="defs4095"><inkscape:path-effect
     effect="powerclip"
     id="path-effect890"
     is_visible="true"
     lpeversion="1"
     inverse="true"
     flatten="false"
     hide_clip="false"
     message="Use fill-rule evenodd on &lt;b&gt;fill and stroke&lt;/b&gt; dialog if no flatten result after convert clip to paths." /><inkscape:path-effect
     effect="powerclip"
     id="path-effect886"
     is_visible="true"
     lpeversion="1"
     inverse="true"
     flatten="false"
     hide_clip="false"
     message="Use fill-rule evenodd on &lt;b&gt;fill and stroke&lt;/b&gt; dialog if no flatten result after convert clip to paths." /><clipPath
     clipPathUnits="userSpaceOnUse"
     id="clipPath878"><path
       style="display:none;fill:#ffffff;fill-opacity:1;stroke:none;stroke-width:1.07687px;stroke-linecap:butt;stroke-linejoin:miter;stroke-opacity:1"
       d="m 30.578006,35.073034 3.682037,4.464428 4.595747,-4.216244 -3.946461,-4.268054 z"
       id="path880"
       sodipodi:nodetypes="ccccc" /><path
       id="lpe_path-effect886"
       style="display:inline;fill:#ffffff;fill-opacity:1;stroke:none;stroke-width:1.07687px;stroke-linecap:butt;stroke-linejoin:miter;stroke-opacity:1"
       class="powerclip"
       d="M -0.929284,-0.7316369 H 48.929284 V 49.126931 H -0.929284 Z m 31.50729,35.8046709 3.682037,4.464428 4.595747,-4.216244 -3.946461,-4.268054 z" /></clipPath><clipPath
     clipPathUnits="userSpaceOnUse"
     id="clipPath882"><path
       style="display:none;fill:#ffffff;fill-opacity:1;stroke:none;stroke-width:1.07687px;stroke-linecap:butt;stroke-linejoin:miter;stroke-opacity:1"
       d="m 30.578006,35.073034 3.682037,4.464428 4.595747,-4.216244 -3.946461,-4.268054 z"
       id="path884"
       sodipodi:nodetypes="ccccc" /><path
       id="lpe_path-effect890"
       style="display:inline;fill:#ffffff;fill-opacity:1;stroke:none;stroke-width:1.07687px;stroke-linecap:butt;stroke-linejoin:miter;stroke-opacity:1"
       class="powerclip"
       d="M -2,-2.1111104 H 50.322721 V 50.112193 H -2 Z m 32.578006,37.1841444 3.682037,4.464428 4.595747,-4.216244 -3.946461,-4.268054 z" /></clipPath></defs><sodipodi:namedview
   pagecolor="#ffffff"
   bordercolor="#666666"
   borderopacity="1"
   objecttolerance="10"
   gridtolerance="10"
   guidetolerance="10"
   inkscape:pageopacity="0"
   inkscape:pageshadow="2"
   inkscape:window-width="1545"
   inkscape:window-height="922"
   id="namedview4093"
   showgrid="false"
   inkscape:zoom="12.521303"
   inkscape:cx="24.039032"
   inkscape:cy="28.51141"
   inkscape:window-x="0"
   inkscape:window-y="0"
   inkscape:window-maximized="0"
   inkscape:current-layer="Layer_1"
   inkscape:document-rotation="0"
   inkscape:pagecheckerboard="0" />
<style
   type="text/css"
   id="style4048">
	.st0{fill:none;stroke:#FBB03B;stroke-width:2;stroke-miterlimit:10;}
	.st1{fill:none;stroke:#000000;stroke-miterlimit:10;}
	.st2{fill:none;stroke:#FF0000;stroke-width:2;stroke-miterlimit:10;}
	.st3{fill:none;stroke:#FF0000;stroke-width:2;stroke-linecap:round;stroke-miterlimit:10;}
</style>















<g
   id="g872"
   inkscape:label="ties"
   transform="matrix(1.0865725,0,0,1.0985893,-2.2578819,-2.3618824)"
   clip-path="url(#clipPath882)"
   inkscape:path-effect="#path-effect890"><line
     class="st0"
     x1="23.9"
     y1="2.9000001"
     x2="24"
     y2="11.9"
     id="line4050"
     style="stroke:#d98b0d;stroke-opacity:1"
     d="M 23.9,2.9000001 24,11.9" /><line
     class="st0"
     x1="23.9"
     y1="36.900002"
     x2="24"
     y2="45.099998"
     id="line4052"
     style="stroke:#d98b0d;stroke-opacity:1"
     d="M 23.9,36.900002 24,45.099998" /><line
     class="st0"
     x1="36.5"
     y1="24"
     x2="45.299999"
     y2="24.200001"
     id="line4054"
     style="stroke:#d98b0d;stroke-opacity:1"
     d="m 36.5,24 8.799999,0.200001" /><line
     class="st0"
     x1="3"
     y1="25"
     x2="12"
     y2="25"
     id="line4056"
     style="stroke:#d98b0d;stroke-opacity:1"
     d="m 3,25 h 9" /><line
     class="st0"
     x1="8.6179476"
     y1="9.9343204"
     x2="14.894994"
     y2="15.583662"
     id="line4058"
     style="stroke:#d98b0d;stroke-opacity:1"
     d="M 8.6179476,9.9343204 14.894994,15.583662" /><line
     class="st0"
     x1="38.599998"
     y1="8.3999996"
     x2="32.799999"
     y2="15.3"
     id="line4060"
     style="stroke:#d98b0d;stroke-opacity:1"
     d="M 38.599998,8.3999996 32.799999,15.3" /><line
     class="st0"
     x1="32"
     y1="4.5"
     x2="28.799999"
     y2="12.6"
     id="line4062"
     style="stroke:#d98b0d;stroke-opacity:1"
     d="m 32,4.5 -3.200001,8.1" /><line
     class="st0"
     x1="43.299999"
     y1="14.7"
     x2="35.099998"
     y2="19"
     id="line4064"
     style="stroke:#d98b0d;stroke-opacity:1"
     d="M 43.299999,14.7 35.099998,19" /><line
     class="st0"
     x1="14.7"
     y1="4.9000001"
     x2="18.6"
     y2="12.6"
     id="line4066"
     style="stroke:#d98b0d;stroke-opacity:1"
     d="M 14.7,4.9000001 18.6,12.6" /><line
     class="st0"
     x1="4.0999999"
     y1="16.9"
     x2="12.4"
     y2="19.700001"
     id="line4068"
     style="stroke:#d98b0d;stroke-opacity:1"
     d="M 4.0999999,16.9 12.4,19.700001" /><line
     class="st0"
     x1="8.6999998"
     y1="39"
     x2="15.3"
     y2="32.799999"
     id="line4070"
     style="stroke:#d98b0d;stroke-opacity:1"
     d="M 8.6999998,39 15.3,32.799999" /><line
     class="st0"
     x1="4.5999999"
     y1="32.799999"
     x2="12.8"
     y2="28.9"
     id="line4072"
     style="stroke:#d98b0d;stroke-opacity:1"
     d="M 4.5999999,32.799999 12.8,28.9" /><line
     class="st0"
     x1="15.3"
     y1="43.900002"
     x2="19.4"
     y2="35.400002"
     id="line4074"
     style="stroke:#d98b0d;stroke-opacity:1"
     d="m 15.3,43.900002 4.1,-8.5" /><line
     class="st0"
     x1="39.200001"
     y1="39.599998"
     x2="32.799999"
     y2="33.099998"
     id="line4076"
     style="stroke:#d98b0d;stroke-opacity:1"
     d="m 39.200001,39.599998 -6.400002,-6.5" /><line
     class="st0"
     x1="43.900002"
     y1="32.799999"
     x2="34.700001"
     y2="29.6"
     id="line4078"
     style="stroke:#d98b0d;stroke-opacity:1"
     d="M 43.900002,32.799999 34.700001,29.6" /><line
     class="st0"
     x1="32"
     y1="43.900002"
     x2="28.799999"
     y2="35.900002"
     id="line4080"
     style="stroke:#d98b0d;stroke-opacity:1"
     d="m 32,43.900002 -3.200001,-8" /></g>

<g
   id="g854"
   inkscape:label="rails"
   transform="matrix(1.0865725,0,0,1.0985893,-2.2578819,-2.3618824)"
   clip-path="url(#clipPath878)"
   inkscape:path-effect="#path-effect886"><path
     class="st1"
     d="m 43.179284,24.197647 c 0,10.611888 -8.567397,19.179284 -19.179285,19.179284 -10.611888,0 -19.179283,-8.567396 -19.179283,-19.179284 0,-10.611888 8.567395,-19.1792839 19.179283,-19.1792839 10.611888,0 19.179285,8.5673959 19.179285,19.1792839 z"
     id="path4082"
     style="stroke-width:1.83055574;stroke-miterlimit:10;stroke-dasharray:none"
     inkscape:original-d="m 43.179284,24.197647 c 0,10.611888 -8.567397,19.179284 -19.179285,19.179284 -10.611888,0 -19.179283,-8.567396 -19.179283,-19.179284 0,-10.611888 8.567395,-19.1792839 19.179283,-19.1792839 10.611888,0 19.179285,8.5673959 19.179285,19.1792839 z" /><path
     class="st1"
     d="m 38.685289,24 c 0,8.021276 -6.43813,14.459406 -14.459407,14.459406 -8.021276,0 -14.459406,-6.43813 -14.459406,-14.459406 0,-8.021277 6.43813,-14.4594063 14.459406,-14.4594063 7.915734,0 14.459407,6.4381293 14.459407,14.4594063 z"
     id="path4084"
     style="stroke-width:1.83055574;stroke-miterlimit:10;stroke-dasharray:none"
     inkscape:original-d="m 38.685289,24 c 0,8.021276 -6.43813,14.459406 -14.459407,14.459406 -8.021276,0 -14.459406,-6.43813 -14.459406,-14.459406 0,-8.021277 6.43813,-14.4594063 14.459406,-14.4594063 7.915734,0 14.459407,6.4381293 14.459407,14.4594063 z" /></g>


<g
   id="g876"
   inkscape:label="arrow"
   transform="matrix(1.065425,0,0,1.1038274,-2.1546271,-3.2465836)"><line
     class="st2"
     x1="24.711523"
     y1="25.142181"
     x2="36"
     y2="36.299999"
     id="line4088"
     style="stroke:#cc0000;stroke-width:2.76636;stroke-miterlimit:10;stroke-dasharray:none;stroke-opacity:1" /><polyline
     class="st3"
     points="28.8,24 24.4,24.7 23.7,29.1 "
     id="polyline4090"
     transform="matrix(1.3657905,0,0,1.3104272,-8.6137653,-7.225371)"
     style="stroke:#cc0000;stroke-width:2.06781049;stroke-miterlimit:10;stroke-dasharray:none;stroke-opacity:1" /></g>
</svg>
