<?xml version="1.0" encoding="UTF-8" standalone="no"?>
<svg
   version="1.1"
   id="Layer_1"
   x="0px"
   y="0px"
   viewBox="0 0 48 48"
   style="enable-background:new 0 0 48 48;"
   xml:space="preserve"
   sodipodi:docname="snap-curs.svg"
   inkscape:version="1.1.1 (3bf5ae0d25, 2021-09-20)"
   xmlns:inkscape="http://www.inkscape.org/namespaces/inkscape"
   xmlns:sodipodi="http://sodipodi.sourceforge.net/DTD/sodipodi-0.dtd"
   xmlns="http://www.w3.org/2000/svg"
   xmlns:svg="http://www.w3.org/2000/svg"
   xmlns:rdf="http://www.w3.org/1999/02/22-rdf-syntax-ns#"
   xmlns:cc="http://creativecommons.org/ns#"
   xmlns:dc="http://purl.org/dc/elements/1.1/"><metadata
   id="metadata73"><rdf:RDF><cc:Work
       rdf:about=""><dc:format>image/svg+xml</dc:format><dc:type
         rdf:resource="http://purl.org/dc/dcmitype/StillImage" /></cc:Work></rdf:RDF></metadata><defs
   id="defs71" /><sodipodi:namedview
   pagecolor="#ffffff"
   bordercolor="#666666"
   borderopacity="1"
   objecttolerance="10"
   gridtolerance="10"
   guidetolerance="10"
   inkscape:pageopacity="0"
   inkscape:pageshadow="2"
   inkscape:window-width="1525"
   inkscape:window-height="969"
   id="namedview69"
   showgrid="false"
   inkscape:zoom="11.681573"
   inkscape:cx="23.969375"
   inkscape:cy="24.012177"
   inkscape:window-x="0"
   inkscape:window-y="0"
   inkscape:window-maximized="0"
   inkscape:current-layer="Layer_1"
   inkscape:document-rotation="0"
   inkscape:snap-nodes="true"
   inkscape:pagecheckerboard="0" />
<style
   type="text/css"
   id="style2">
	.st0{fill:#FFFFFF;stroke:#000000;stroke-miterlimit:10;}
	.st1{fill:none;}
	.st2{fill:#231F20;}
</style>
<path
   class="st0"
   d="m 28.485161,24.116161 c 0,2.446994 -1.922639,4.544418 -4.54442,4.544418 -2.446995,0 -4.544418,-1.922639 -4.544418,-4.544418 0,-2.446995 1.922639,-4.544418 4.544418,-4.544418 2.446995,0.174783 4.54442,2.097423 4.54442,4.544418 z"
   id="path1012"
   style="fill:none;fill-opacity:1;stroke:#00cc10;stroke-width:2.07667;stroke-miterlimit:10;stroke-dasharray:none;stroke-opacity:1" />












<path
   class="st0"
   d="m 11.125143,40.945382 c 0,2.446995 -1.9226384,4.544418 -4.5444195,4.544418 -2.4469957,0 -4.544418,-1.922638 -4.544418,-4.544418 0,-2.446994 1.9226384,-4.544418 4.544418,-4.544418 2.4469944,0.174784 4.5444195,2.097424 4.5444195,4.544418 z"
   id="path30"
   style="fill:none;fill-opacity:1;stroke:#00cc10;stroke-width:2.07667;stroke-miterlimit:10;stroke-dasharray:none;stroke-opacity:1" />
<path
   class="st0"
   d="m 28.603676,40.945382 c 0,2.446995 -1.922638,4.544418 -4.544419,4.544418 -2.446996,0 -4.544418,-1.922638 -4.544418,-4.544418 0,-2.446994 1.922638,-4.544418 4.544418,-4.544418 2.446994,0.174784 4.544419,2.097424 4.544419,4.544418 z"
   id="path32"
   style="fill:none;fill-opacity:1;stroke:#00cc10;stroke-width:2.07667;stroke-miterlimit:10;stroke-dasharray:none;stroke-opacity:1" />
<path
   class="st0"
   d="m 46.08221,40.945382 c 0,2.446995 -1.922638,4.544418 -4.544419,4.544418 -2.446996,0 -4.544418,-1.922638 -4.544418,-4.544418 0,-2.446994 1.922638,-4.544418 4.544418,-4.544418 2.446994,0.174784 4.544419,2.097424 4.544419,4.544418 z"
   id="path34"
   style="fill:none;fill-opacity:1;stroke:#00cc10;stroke-width:2.07667;stroke-miterlimit:10;stroke-dasharray:none;stroke-opacity:1" />









<path
   class="st0"
   d="m 11.125143,7.054619 c 0,2.4469958 -1.9226384,4.544419 -4.5444195,4.544419 -2.4469957,0 -4.544418,-1.9226393 -4.544418,-4.544419 0,-2.4469943 1.9226384,-4.5444194 4.544418,-4.5444194 2.4469944,0.1747867 4.5444195,2.0974251 4.5444195,4.5444194 z"
   id="path54"
   style="fill:none;fill-opacity:1;stroke:#00cc10;stroke-width:2.07667;stroke-miterlimit:10;stroke-dasharray:none;stroke-opacity:1" />
<path
   class="st0"
   d="m 28.603676,7.054619 c 0,2.4469958 -1.922638,4.544419 -4.544419,4.544419 -2.446996,0 -4.544418,-1.9226393 -4.544418,-4.544419 0,-2.4469943 1.922638,-4.5444194 4.544418,-4.5444194 2.446994,0.1747867 4.544419,2.0974251 4.544419,4.5444194 z"
   id="path56"
   style="fill:none;fill-opacity:1;stroke:#00cc10;stroke-width:2.07667;stroke-miterlimit:10;stroke-dasharray:none;stroke-opacity:1" />
<path
   class="st0"
   d="m 46.08221,7.054619 c 0,2.4469958 -1.922638,4.544419 -4.544419,4.544419 -2.446996,0 -4.544418,-1.9226393 -4.544418,-4.544419 0,-2.4469943 1.922638,-4.5444194 4.544418,-4.5444194 2.446994,0.1747867 4.544419,2.0974251 4.544419,4.5444194 z"
   id="path58"
   style="fill:none;fill-opacity:1;stroke:#00cc10;stroke-width:2.07667;stroke-miterlimit:10;stroke-dasharray:none;stroke-opacity:1" />

<path
   class="st0"
   d="m 11.006627,24.17424 c 0,2.446994 -1.9226382,4.544418 -4.5444192,4.544418 -2.4469957,0 -4.5444181,-1.922639 -4.5444181,-4.544418 0,-2.446995 1.9226384,-4.544418 4.5444181,-4.544418 2.4469943,0.174783 4.5444192,2.097423 4.5444192,4.544418 z"
   id="path1010"
   style="fill:none;fill-opacity:1;stroke:#00cc10;stroke-width:2.07667;stroke-miterlimit:10;stroke-dasharray:none;stroke-opacity:1" /><path
   class="st0"
   d="m 45.963694,24.17424 c 0,2.446994 -1.922638,4.544418 -4.544419,4.544418 -2.446996,0 -4.544418,-1.922639 -4.544418,-4.544418 0,-2.446995 1.922638,-4.544418 4.544418,-4.544418 2.446994,0.174783 4.544419,2.097423 4.544419,4.544418 z"
   id="path1014"
   style="fill:none;fill-opacity:1;stroke:#00cc10;stroke-width:2.07667;stroke-miterlimit:10;stroke-dasharray:none;stroke-opacity:1" /><g
   id="g66"
   transform="matrix(1.3844491,0,0,1.3844491,-0.84053536,-0.98876425)">
	
	
<g
   id="g64"
   transform="translate(-5.5643192,-5.3931099)">
		<polygon
   class="st2"
   points="25.6,11.7 10.7,10.9 13.2,25.5 18.2,20 34.2,34.2 36.6,31.5 20.6,17.2 "
   id="polygon62"
   transform="matrix(0.90211734,0,0,0.90211734,1.0473445,1.066921)" />
	</g></g></svg>
